<?xml version="1.0" encoding="UTF-8" standalone="no"?>
<!-- Created with Inkscape (http://www.inkscape.org/) -->

<svg
   xmlns:osb="http://www.openswatchbook.org/uri/2009/osb"
   xmlns:dc="http://purl.org/dc/elements/1.1/"
   xmlns:cc="http://creativecommons.org/ns#"
   xmlns:rdf="http://www.w3.org/1999/02/22-rdf-syntax-ns#"
   xmlns:svg="http://www.w3.org/2000/svg"
   xmlns="http://www.w3.org/2000/svg"
   xmlns:sodipodi="http://sodipodi.sourceforge.net/DTD/sodipodi-0.dtd"
   xmlns:inkscape="http://www.inkscape.org/namespaces/inkscape"
   width="210.12096mm"
   height="73.546219mm"
   viewBox="0 0 210.12096 73.546219"
   version="1.1"
   id="svg8"
   inkscape:version="0.92.4 (unknown)"
   sodipodi:docname="path-to-pit.svg">
  <defs
     id="defs2">
    <linearGradient
       id="linearGradient7279"
       osb:paint="solid">
      <stop
         style="stop-color:#000055;stop-opacity:1;"
         offset="0"
         id="stop7277" />
    </linearGradient>
    <marker
       inkscape:stockid="Tail"
       orient="auto"
       refY="0"
       refX="0"
       id="Tail"
       style="overflow:visible"
       inkscape:isstock="true">
      <g
         id="g6872"
         transform="scale(-1.2)">
        <path
           id="path6860"
           d="M -3.8048674,-3.9585227 0.54352094,0"
           style="fill:none;fill-rule:evenodd;stroke:#000000;stroke-width:0.80000001;stroke-linecap:round"
           inkscape:connector-curvature="0" />
        <path
           id="path6862"
           d="M -1.2866832,-3.9585227 3.0617053,0"
           style="fill:none;fill-rule:evenodd;stroke:#000000;stroke-width:0.80000001;stroke-linecap:round"
           inkscape:connector-curvature="0" />
        <path
           id="path6864"
           d="M 1.3053582,-3.9585227 5.6537466,0"
           style="fill:none;fill-rule:evenodd;stroke:#000000;stroke-width:0.80000001;stroke-linecap:round"
           inkscape:connector-curvature="0" />
        <path
           id="path6866"
           d="M -3.8048674,4.1775838 0.54352094,0.21974226"
           style="fill:none;fill-rule:evenodd;stroke:#000000;stroke-width:0.80000001;stroke-linecap:round"
           inkscape:connector-curvature="0" />
        <path
           id="path6868"
           d="M -1.2866832,4.1775838 3.0617053,0.21974226"
           style="fill:none;fill-rule:evenodd;stroke:#000000;stroke-width:0.80000001;stroke-linecap:round"
           inkscape:connector-curvature="0" />
        <path
           id="path6870"
           d="M 1.3053582,4.1775838 5.6537466,0.21974226"
           style="fill:none;fill-rule:evenodd;stroke:#000000;stroke-width:0.80000001;stroke-linecap:round"
           inkscape:connector-curvature="0" />
      </g>
    </marker>
    <marker
       inkscape:stockid="Arrow1Lstart"
       orient="auto"
       refY="0"
       refX="0"
       id="Arrow1Lstart"
       style="overflow:visible"
       inkscape:isstock="true">
      <path
         id="path6824"
         d="M 0,0 5,-5 -12.5,0 5,5 Z"
         style="fill-rule:evenodd;stroke:#000000;stroke-width:1.00000003pt"
         transform="matrix(0.8,0,0,0.8,10,0)"
         inkscape:connector-curvature="0" />
    </marker>
    <linearGradient
       id="linearGradient6818"
       osb:paint="solid">
      <stop
         style="stop-color:#ff0000;stop-opacity:1;"
         offset="0"
         id="stop6816" />
    </linearGradient>
  </defs>
  <sodipodi:namedview
     id="base"
     pagecolor="#ffffff"
     bordercolor="#666666"
     borderopacity="1.0"
     inkscape:pageopacity="0.0"
     inkscape:pageshadow="2"
     inkscape:zoom="0.7"
     inkscape:cx="395.10533"
     inkscape:cy="158.37294"
     inkscape:document-units="mm"
     inkscape:current-layer="layer1"
     showgrid="false"
     inkscape:snap-global="false"
     inkscape:window-width="1600"
     inkscape:window-height="836"
     inkscape:window-x="0"
     inkscape:window-y="27"
     inkscape:window-maximized="1"
     fit-margin-top="0"
     fit-margin-left="0"
     fit-margin-right="0"
     fit-margin-bottom="0"
     units="mm" />
  <metadata
     id="metadata5">
    <rdf:RDF>
      <cc:Work
         rdf:about="">
        <dc:format>image/svg+xml</dc:format>
        <dc:type
           rdf:resource="http://purl.org/dc/dcmitype/StillImage" />
        <dc:title></dc:title>
      </cc:Work>
    </rdf:RDF>
  </metadata>
  <g
     inkscape:label="Layer 1"
     inkscape:groupmode="layer"
     id="layer1"
     transform="translate(-0.24372113,-101.60242)">
    <rect
       style="opacity:1;fill:#00aa00;fill-opacity:1;fill-rule:nonzero;stroke:none;stroke-width:0.97017366;stroke-linejoin:round;stroke-miterlimit:4;stroke-dasharray:none;stroke-dashoffset:0;stroke-opacity:0.99606299"
       id="rect916"
       width="210.12096"
       height="73.546219"
       x="0.24372113"
       y="101.60242" />
    <rect
       id="rect3713"
       width="209.83066"
       height="33.037312"
       x="0.42349741"
       y="132.97911"
       style="fill:#808080;stroke-width:0.4086574" />
    <rect
       id="rect3715"
       width="144.21046"
       height="22.569551"
       x="44.034115"
       y="110.71315"
       style="fill:#999999;stroke-width:0.28416383" />
    <rect
       id="rect3717"
       width="13.788148"
       height="6.5550218"
       x="52.051224"
       y="112.28105"
       style="fill:#e6e6e6;stroke-width:0.22376345" />
    <rect
       id="rect3717-3"
       width="13.788148"
       height="6.5550218"
       x="71.345596"
       y="112.54326"
       style="fill:#e6e6e6;stroke-width:0.22376345" />
    <rect
       id="rect3717-6"
       width="13.788148"
       height="6.5550218"
       x="88.703972"
       y="112.54326"
       style="fill:#000055;fill-opacity:1;fill-rule:nonzero;stroke-width:0.22376345" />
    <rect
       id="rect3717-3-7"
       width="13.788148"
       height="6.5550218"
       x="106.06238"
       y="112.54326"
       style="fill:#e6e6e6;stroke-width:0.22376345" />
    <rect
       id="rect3717-3-5"
       width="13.788148"
       height="6.5550218"
       x="123.42073"
       y="112.54326"
       style="fill:#e6e6e6;stroke-width:0.22376345" />
    <rect
       id="rect3717-6-3"
       width="13.788148"
       height="6.5550218"
       x="140.77896"
       y="112.54326"
       style="fill:#e6e6e6;stroke-width:0.22376345" />
    <rect
       id="rect3717-3-7-5"
       width="13.788148"
       height="6.5550218"
       x="158.13733"
       y="112.54326"
       style="fill:#e6e6e6;stroke-width:0.22376345" />
    <path
       style="fill:none;stroke:#ffffff;stroke-width:1;stroke-linecap:butt;stroke-linejoin:miter;stroke-miterlimit:4;stroke-dasharray:4, 4;stroke-dashoffset:0;stroke-opacity:1"
       d="M 19.847941,149.49772 H 210.25521"
       id="path3809"
       inkscape:connector-curvature="0" />
    <circle
       style="fill:#0000ff;fill-opacity:1;stroke:none;stroke-width:0.66813242;stroke-miterlimit:4;stroke-dasharray:2.67252955, 2.67252955;stroke-dashoffset:0;stroke-opacity:1"
       id="path5133"
       cx="18.889788"
       cy="149.29166"
       r="1.25" />
    <rect
       style="opacity:0.7;fill:#ffff00;fill-opacity:1;fill-rule:nonzero;stroke:none;stroke-width:1.60588455;stroke-linejoin:round;stroke-miterlimit:4;stroke-dasharray:none;stroke-dashoffset:0;stroke-opacity:0.99606299"
       id="rect1051"
       width="105.83334"
       height="8.6934519"
       x="61.475861"
       y="123.13911" />
    <circle
       style="fill:#0000ff;fill-opacity:1;stroke:none;stroke-width:0.66813242;stroke-miterlimit:4;stroke-dasharray:2.67252966, 2.67252966;stroke-dashoffset:0;stroke-opacity:1"
       id="path5133-6"
       cx="60.840355"
       cy="127.91011"
       r="1.25" />
    <circle
       style="fill:#0000ff;fill-opacity:1;stroke:none;stroke-width:0.66813242;stroke-miterlimit:4;stroke-dasharray:2.6725296, 2.6725296;stroke-dashoffset:0;stroke-opacity:1"
       id="path5133-6-2"
       cx="81.687378"
       cy="125.50467"
       r="1.25" />
    <circle
       style="fill:#0000ff;fill-opacity:1;stroke:none;stroke-width:0.66813242;stroke-miterlimit:4;stroke-dasharray:2.6725296, 2.6725296;stroke-dashoffset:0;stroke-opacity:1"
       id="path5133-6-9"
       cx="95.585403"
       cy="116.95205"
       r="1.25" />
    <circle
       style="fill:#0000ff;fill-opacity:1;stroke:none;stroke-width:0.66813242;stroke-miterlimit:4;stroke-dasharray:2.6725296, 2.6725296;stroke-dashoffset:0;stroke-opacity:1"
       id="path5133-6-1"
       cx="110.3121"
       cy="125.51004"
       r="1.25" />
    <circle
       style="fill:#0000ff;fill-opacity:1;stroke:none;stroke-width:0.66813242;stroke-miterlimit:4;stroke-dasharray:2.6725296, 2.6725296;stroke-dashoffset:0;stroke-opacity:1"
       id="path5133-6-27"
       cx="166.68446"
       cy="127.9101"
       r="1.25" />
    <circle
       style="fill:#0000ff;fill-opacity:1;stroke:none;stroke-width:0.66813242;stroke-miterlimit:4;stroke-dasharray:2.6725296, 2.6725296;stroke-dashoffset:0;stroke-opacity:1"
       id="path5133-6-0"
       cx="206.51839"
       cy="150.09349"
       r="1.25" />
    <rect
       style="fill:#000055;fill-opacity:1;fill-rule:nonzero;stroke:#fffbff;stroke-width:0.8059392;stroke-linejoin:round;stroke-miterlimit:4;stroke-dasharray:none;stroke-dashoffset:0;stroke-opacity:0.99606299"
       id="rect5189"
       width="72.6241"
       height="2.4239295"
       x="73.280266"
       y="133.35301" />
    <g
       id="g7273"
       transform="matrix(0.14716574,0,0,0.14716574,-3.2104034,138.20758)">
      <path
         inkscape:connector-curvature="0"
         id="path7158"
         d="m 30.237028,57.950121 4.732633,-3.965182 6.907085,-3.197726 5.883814,-1.023264 17.011897,0.127905 27.244616,-0.511637 -0.511638,-3.325631 v -1.918633 l 0.639553,-0.383733 3.197726,3.197726 1.534899,2.302366 8.058267,-0.895369 6.77918,-0.767455 h 15.47699 l 5.88382,1.151187 5.50009,3.197726 5.88381,4.988446 2.17446,3.32564 0.63954,3.837267 0.51163,8.569904 -0.76745,13.686263 -1.27909,3.965173 -3.83727,5.500092 -8.44199,5.883814 -4.60473,1.407 -5.37218,0.76745 -12.66299,0.63954 -6.39545,0.12792 -5.755908,-0.63954 -3.709361,-0.12792 -2.686091,3.58145 -1.534899,1.27909 -0.895369,-0.76745 0.511637,-3.96517 -27.628346,0.51162 -11.767629,0.76746 -6.395449,0.25582 -3.197726,-0.63954 -6.395448,-2.55819 -5.116361,-3.069811 -3.069815,-5.116359 -1.406999,-6.65127 -0.12791,-7.674543 1.023272,-11.767622 1.662819,-7.290811 z"
         style="fill:#d40000;stroke:#000000;stroke-width:0.2532469px;stroke-linecap:butt;stroke-linejoin:miter;stroke-opacity:1" />
      <g
         style="opacity:0.87999998;fill:#f2f2f2"
         id="g7178"
         transform="matrix(0.95715365,0,0,0.95715365,-16.83349,-57.740444)">
        <path
           style="fill:#f2f2f2;stroke:#000000;stroke-width:0.26458332px;stroke-linecap:butt;stroke-linejoin:miter;stroke-opacity:1"
           d="m 77.957589,118.02827 1.889879,-0.85044 7.087055,-0.85045 0.850445,2.64583 -1.228421,2.26786 -6.142114,-1.13393 -1.984375,-0.94494 z"
           id="path7160"
           inkscape:connector-curvature="0" />
        <path
           style="fill:#f2f2f2;stroke:#000000;stroke-width:0.26458332px;stroke-linecap:butt;stroke-linejoin:miter;stroke-opacity:1"
           d="m 120.5744,114.4375 -3.77976,-0.75595 -28.820683,1.79538 -1.039434,0.37798 0.755952,2.74033 -0.472469,2.92931 1.322916,0.56697 8.315476,0.47247 5.386162,-0.94494 9.82738,-3.3073 z"
           id="path7162"
           inkscape:connector-curvature="0" />
        <path
           style="fill:#f2f2f2;stroke:#000000;stroke-width:0.26458332px;stroke-linecap:butt;stroke-linejoin:miter;stroke-opacity:1"
           d="m 77.107142,163.5744 0.94494,-1.22842 7.465031,-2.07887 0.850445,1.88988 0.283483,1.6064 -0.944941,1.6064 -6.52009,-0.47247 z"
           id="path7164"
           inkscape:connector-curvature="0" />
        <path
           style="fill:#f2f2f2;stroke:#000000;stroke-width:0.26458332px;stroke-linecap:butt;stroke-linejoin:miter;stroke-opacity:1"
           d="m 119.15699,165.65327 -6.14211,-2.83482 -12.00075,-3.68527 -3.590767,-0.47247 -5.10268,0.18899 -6.614583,1.22842 1.228423,3.2128 -1.039434,2.55134 19.843751,0.66146 9.35491,-0.18899 z"
           id="path7166"
           inkscape:connector-curvature="0" />
        <path
           style="fill:#f2f2f2;stroke:#000000;stroke-width:0.26458332px;stroke-linecap:butt;stroke-linejoin:miter;stroke-opacity:1"
           d="m 109.80208,122.84747 5.19718,-3.11831 4.53571,-2.17336 2.36235,-0.85045 h 1.03944 l 1.60639,2.45685 1.6064,4.06324 1.13393,6.14212 0.28348,7.08705 -0.0945,6.23661 -0.75595,8.50446 -1.6064,5.66965 -1.79539,3.96875 -1.41741,2.07886 -1.32292,0.37798 -6.61458,-2.74033 -4.34673,-2.55134 -1.32291,-1.6064 -0.18899,-1.22842 0.56696,-5.48065 0.56697,-6.3311 0.28348,-7.27604 -0.66146,-7.37054 -0.47247,-3.2128 0.66146,-1.79539 z"
           id="path7168"
           inkscape:connector-curvature="0" />
        <path
           style="fill:#f2f2f2;stroke:#000000;stroke-width:0.26458332px;stroke-linecap:butt;stroke-linejoin:miter;stroke-opacity:1"
           d="m 77.012648,125.4933 1.039434,1.6064 0.377976,3.1183 -0.377976,15.49703 -0.472469,7.74851 -0.377978,2.07887 -0.755952,1.13393 -2.740326,0.85044 -3.02381,0.75596 -3.968749,0.47246 -3.590775,-0.18898 -1.984375,-1.13393 -1.511905,-3.96875 -0.755952,-4.25223 -0.472469,-5.19717 0.377976,-5.57515 0.472469,-4.91369 1.039434,-4.53572 1.700892,-3.77976 1.322917,-0.85045 1.795388,-0.56696 h 2.456844 l 4.724705,0.28348 z"
           id="path7170"
           inkscape:connector-curvature="0" />
      </g>
      <g
         inkscape:export-ydpi="96"
         inkscape:export-xdpi="96"
         transform="matrix(-0.79248839,0.01941185,0.01941185,-0.85973309,168.92168,167.32598)"
         inkscape:label="レイヤー 1"
         id="layer1-1-9">
        <path
           style="fill:#000000;stroke-width:0.35277778"
           d="m 98.22013,144.41101 c -0.98912,-1.01864 -2.132146,-2.32714 -2.540055,-2.90777 -0.715144,-1.01795 -0.828626,-1.05239 -3.175,-0.96354 -1.33834,0.0507 -4.576473,0.35847 -7.195848,0.68399 -9.393298,1.16731 -29.361043,0.43188 -35.434973,-1.3051 -5.042138,-1.44193 -9.926121,-4.51482 -14.609678,-9.19209 -3.542196,-3.53744 -4.417435,-5.01039 -5.127253,-8.62868 -1.353929,-6.90166 -1.365423,-21.26166 -0.02273,-28.39862 0.719399,-3.8239 1.654031,-5.39992 5.373714,-9.06144 6.03758,-5.94318 11.622741,-8.79612 19.305642,-9.86147 6.035495,-0.83692 25.326466,-1.05963 30.515277,-0.3523 2.231319,0.30417 5.390698,0.58277 7.020842,0.61912 2.903855,0.0647 2.978305,0.0453 3.674872,-0.95767 0.97942,-1.41028 3.1102,-3.65505 3.85637,-4.06269 0.40656,-0.2221 0.86874,-0.20273 1.35356,0.0567 0.65416,0.3501 0.72296,0.65617 0.61736,2.74644 l -0.11883,2.35244 17.99165,-0.0437 c 9.89542,-0.024 22.9923,-0.10342 29.10417,-0.17638 10.84086,-0.12943 11.19011,-0.11191 14.2875,0.71699 8.13843,2.17795 15.05273,6.27857 17.74169,10.52193 1.58349,2.49885 2.09558,4.40694 2.73717,10.19888 0.74243,6.70225 0.74115,16.13771 -0.003,22.85677 -0.64932,5.86206 -1.34339,8.25793 -3.10306,10.71151 -3.56591,4.97208 -12.73917,9.49433 -21.66973,10.68276 -3.41937,0.45504 -15.52545,0.27025 -24.98352,-0.38135 -3.6373,-0.25058 -10.37144,-0.304 -18.93758,-0.15023 l -13.29313,0.23863 0.2026,2.41658 c 0.21103,2.51713 -0.13241,3.49236 -1.22987,3.49236 -0.29681,0 -1.34894,-0.83344 -2.33806,-1.85209 z m 2.60935,-0.70555 c -0.005,-3.20351 -1.4545,-5.55625 -3.42199,-5.55625 -1.404638,0 -1.771432,0.64573 -1.179089,2.07577 0.500214,1.20763 3.591759,4.62701 4.183389,4.62701 0.23868,0 0.41881,-0.49444 0.41769,-1.14653 z M 83.19256,139.9409 c 1.890084,-0.39025 -13.633764,-0.82483 -19.014859,-0.53231 -2.551134,0.13868 -4.549388,0.34118 -4.440561,0.45001 0.258306,0.25831 15.345976,0.61972 19.222087,0.46045 1.649236,-0.0678 3.554236,-0.23794 4.233333,-0.37815 z m 79.72777,-1.43901 c 6.05354,-1.65788 4.84681,-1.73518 -10.75972,-0.68931 -6.01486,0.40309 -11.33299,0.83203 -11.81806,0.9532 -1.95665,0.48879 2.12042,0.73374 10.75973,0.64645 7.97442,-0.0806 9.10675,-0.1678 11.81805,-0.91034 z m -89.872734,0.25182 15.431427,0.0409 0.708156,-0.99452 c 0.906811,-1.2735 0.902973,-1.2959 -0.331245,-1.93414 -0.968816,-0.50099 -1.130536,-0.48364 -2.38125,0.25553 -2.224793,1.31483 -6.943294,1.07423 -26.565457,-1.35461 -3.977569,-0.49235 -8.562426,-1.12336 -10.188571,-1.40225 -3.710647,-0.63639 -3.499949,-0.65301 -3.633495,0.28668 -0.09626,0.67736 -0.305051,0.78256 -1.423864,0.71747 -0.721083,-0.042 -2.125897,-0.48919 -3.121809,-0.99386 -2.826198,-1.43214 -2.431355,-0.78147 0.795025,1.31014 5.477688,3.5511 8.47732,4.57569 12.457437,4.2551 1.552222,-0.12502 9.766363,-0.20891 18.253646,-0.18643 z m 22.146485,-0.43664 c 0.601832,-0.72516 0.449873,-0.81355 -1.866886,-1.08584 -1.560964,-0.18346 -2.195939,-0.10671 -2.89234,0.34959 -1.466857,0.96112 -1.046872,1.27394 1.710344,1.27394 1.901423,0 2.722866,-0.14487 3.048882,-0.53769 z m 36.650919,-0.031 c 0.08,-0.0736 -0.0453,-0.5525 -0.27841,-1.06421 -0.40028,-0.87852 -0.52638,-0.91848 -2.26217,-0.7169 -1.01104,0.11742 -8.10888,0.39555 -15.77298,0.61809 -7.66409,0.22253 -13.99702,0.46126 -14.07317,0.5305 -0.0762,0.0692 0.0766,0.38507 0.33955,0.70186 0.43499,0.52414 1.89231,0.55296 16.18985,0.32023 8.6415,-0.14067 15.7773,-0.31597 15.85733,-0.38957 z m 8.32116,-0.31162 c 1.74625,-0.10983 5.23875,-0.35868 7.76112,-0.55298 2.52236,-0.19431 8.31673,-0.57778 12.87638,-0.85216 5.31398,-0.31977 8.83031,-0.69065 9.79449,-1.03305 1.70846,-0.60671 6.43329,-3.56501 6.43329,-4.028 0,-0.16787 -0.27781,-0.55238 -0.61736,-0.85448 -0.55975,-0.49801 -0.8514,-0.48932 -3.12538,0.0932 -3.21596,0.82378 -12.89166,1.55999 -16.52569,1.25741 -2.71124,-0.22574 -7.55815,-1.16629 -14.08735,-2.73366 -2.20748,-0.52992 -3.46617,-1.04337 -4.25449,-1.73553 -1.00529,-0.88265 -1.51339,-1.01821 -4.97894,-1.32831 -2.12267,-0.18995 -8.6219,-0.3145 -14.44273,-0.27678 l -10.58333,0.0686 -1.82536,1.83203 c -1.41356,1.41874 -2.89825,2.35158 -6.58124,4.13502 -2.61575,1.26664 -5.048711,2.31552 -5.406593,2.33083 -0.357882,0.0153 -0.471579,0.10148 -0.252659,0.19148 0.218919,0.09 3.711422,-0.94836 7.761112,-2.30746 10.74067,-3.60461 14.12159,-4.35346 19.5339,-4.32662 6.94562,0.0344 18.57274,2.09189 22.46217,3.97473 1.21956,0.59038 1.5414,0.9239 1.45772,1.51065 -0.15545,1.08996 -2.87662,1.88484 -8.39243,2.4515 -2.52202,0.25909 -4.69196,0.57756 -4.82211,0.70771 -0.13014,0.13014 -0.0486,0.64935 0.18126,1.15379 0.39686,0.87101 0.51959,0.90722 2.43856,0.7195 1.11137,-0.10871 3.44941,-0.28753 5.19566,-0.39737 z m -24.69444,-1.5834 c 5.43278,-0.18355 11.49917,-0.43995 13.48086,-0.56977 3.48842,-0.22853 3.5908,-0.25898 3.21728,-0.95692 -0.23314,-0.43562 -0.30721,-1.65838 -0.18719,-3.09003 l 0.19862,-2.36915 -1.97378,-0.24661 c -10.50637,-1.31268 -14.48569,-0.79833 -27.42469,3.5448 -7.361871,2.4711 -9.12812,3.16362 -9.287406,3.64148 -0.164861,0.49458 8.185836,0.51213 21.976306,0.0462 z m 14.64028,-1.86631 c 0,-1.38112 0.85579,-4.48938 1.23605,-4.48938 0.42643,0 0.37746,0.46619 -0.38044,3.62118 -0.25376,1.05635 -0.85561,1.66705 -0.85561,0.8682 z m -44.53819,1.16456 c 1.329429,-0.60345 2.018866,-1.42061 1.198569,-1.42061 -0.43561,0 -3.358137,-3.81285 -4.191232,-5.46805 -2.043141,-4.05934 -3.048498,-10.75835 -3.070708,-20.46112 -0.02254,-9.84214 1.031631,-17.16871 3.038309,-21.1167 0.866517,-1.7048 3.785249,-5.51802 4.223631,-5.51802 0.867594,0 0.09357,-0.83689 -1.374958,-1.48663 -1.671817,-0.73969 -1.691206,-0.74002 -8.378472,-0.14354 -10.019612,0.89371 -26.060021,2.89997 -30.081801,3.76249 -1.589131,0.3408 -1.901069,0.57264 -3.002485,2.23149 -0.676012,1.01815 -1.647076,2.79437 -2.157921,3.94716 -1.446283,3.26372 -1.806641,3.79985 -3.165227,4.70911 -0.856506,0.57324 -1.333025,1.20385 -1.466167,1.94028 -0.440778,2.43803 -0.696668,11.6379 -0.457183,16.43686 0.34505,6.91433 0.413104,7.20283 1.906964,8.08424 0.984931,0.58112 1.567423,1.42386 2.810509,4.06622 1.754681,3.72982 3.420778,6.36915 4.212311,6.67289 1.385592,0.5317 19.320284,2.88127 29.8135,3.90578 6.850853,0.66888 8.404144,0.64716 10.142361,-0.14185 z m -10.495139,-8.36172 c -0.679097,-0.069 -3.695347,-0.36821 -6.702777,-0.66497 -10.381549,-1.02439 -19.80436,-2.79223 -28.310416,-5.3114 -1.25175,-0.37072 -0.601077,-0.88201 0.881944,-0.69302 6.337885,0.80768 11.670019,1.65109 24.253472,3.83629 5.141736,0.8929 10.499548,1.80484 11.906249,2.02654 4.294435,0.67681 2.747959,1.29172 -2.028472,0.80656 z m -10.965507,-2.02217 c -0.166836,-0.16326 -2.697576,-0.68116 -8.084492,-1.65446 -5.220663,-0.94326 -6.996824,-1.14632 -6.35,-0.72598 0.911843,0.59257 14.97797,2.91226 14.434492,2.38044 z m -15.404631,-2.91206 c -0.242535,-0.0979 -0.63941,-0.0979 -0.881944,0 -0.242535,0.0979 -0.0441,0.17793 0.440972,0.17793 0.485069,0 0.683507,-0.0801 0.440972,-0.17793 z m -9.260416,-27.258 c 0,-0.77889 9.994952,-3.13816 19.579166,-4.6216 4.171043,-0.64559 17.925834,-2.10535 19.843749,-2.10596 1.21206,-3.9e-4 0.944792,0.6491 -0.352777,0.85728 -3.56428,0.57183 -20.780215,3.48648 -24.077083,4.07623 -3.440675,0.61547 -13.863353,2.12179 -14.681331,2.12179 -0.171449,0 -0.311724,-0.14748 -0.311724,-0.32774 z m 11.860039,-1.98956 c 7.150465,-1.26304 8.845962,-1.57996 10.188571,-1.90443 1.202239,-0.29054 1.052266,-0.31453 -1.013185,-0.16207 -2.031933,0.14998 -6.565008,0.96905 -12.568759,2.27102 -2.342575,0.508 0.241146,0.35229 3.393373,-0.20452 z m 13.28209,-2.50021 c -0.238841,-0.0966 -0.715091,-0.10251 -1.058333,-0.0131 -0.343242,0.0894 -0.147825,0.16851 0.434259,0.1757 0.582083,0.007 0.862915,-0.066 0.624074,-0.16263 z m 28.127314,44.85779 c 0.679097,-0.26151 0.996597,-0.4804 0.705555,-0.48641 -0.291041,-0.006 -1.005416,0.20714 -1.5875,0.47368 -1.362449,0.62385 -0.728733,0.633 0.881945,0.0127 z m -1.716197,-0.69174 1.18703,-0.51536 -1.433304,-0.0138 c -1.843666,-0.0178 -2.811681,-1.00941 -4.662463,-4.7763 -2.535675,-5.16086 -3.397504,-10.6196 -3.397504,-21.51945 0,-10.91849 0.862517,-16.36172 3.409904,-21.51945 1.869468,-3.78513 2.815181,-4.7574 4.650063,-4.78067 l 1.433304,-0.0182 -1.331542,-0.55216 c -1.283585,-0.53228 -1.379181,-0.52064 -2.654265,0.32317 -1.576648,1.04338 -4.007425,4.10366 -5.16426,6.50167 -2.183931,4.52707 -3.395882,16.10379 -2.703432,25.8236 0.787019,11.04735 2.302122,15.45561 6.834935,19.8866 1.886173,1.8438 2.104803,1.91001 3.831534,1.16034 z m 50.260027,-1.05579 c 2.66173,-0.49934 1.78513,-1.11942 -3.56467,-2.5215 -4.39297,-1.15131 -4.65133,-1.12715 -5.09673,0.47667 -0.45585,1.64144 -0.45996,1.97511 -0.0297,2.4054 0.33895,0.33895 6.2751,0.0927 8.69108,-0.36057 z m -95.816051,-0.17307 c 0,-0.18321 -0.372737,-0.76644 -0.828304,-1.29607 l -0.828304,-0.96296 -0.250487,0.99802 c -0.16827,0.67044 -0.09903,1.09408 0.210943,1.29067 0.628101,0.39834 1.696152,0.37967 1.696152,-0.0297 z m 99.331311,-0.0591 c 0.13332,-0.21573 0.0278,-0.52485 -0.23445,-0.68694 -0.44763,-0.27665 -1.00608,0.16966 -1.01925,0.81457 -0.008,0.41188 0.98262,0.31098 1.2537,-0.12763 z m -51.523708,-0.66826 c 2.834157,-0.97509 9.236968,-4.06704 10.643288,-5.13969 2.20068,-1.67854 2.17787,-1.51269 1.36734,-9.94461 -0.68553,-7.13149 -0.69255,-12.48793 -0.0253,-19.30939 0.72519,-7.4139 0.70165,-8.03462 -0.35217,-9.28703 -1.61875,-1.92377 -12.528354,-6.93659 -14.572677,-6.69594 -1.22121,0.14375 -2.849093,2.32502 -4.254341,5.70058 -3.045911,7.31661 -3.743328,23.6332 -1.481931,34.67093 1.092779,5.33371 4.016879,10.71285 5.823514,10.71285 0.437448,0 1.720984,-0.31847 2.852307,-0.7077 z m 2.544075,0.14178 c -0.117228,-0.11722 -0.421499,-0.12975 -0.676159,-0.0278 -0.281421,0.11261 -0.19783,0.1962 0.213138,0.21313 0.371884,0.0153 0.580245,-0.0681 0.463021,-0.18529 z m -54.053721,-3.14412 c -0.140183,-2.32373 -0.591847,-4.05108 -1.059272,-4.05108 -0.08271,0 -0.321367,0.635 -0.530352,1.41112 -0.504677,1.87422 -1.534856,1.93929 -2.130472,0.13455 -0.370545,-1.12276 -0.356612,-1.90177 0.08732,-4.88211 0.07627,-0.51205 -0.307579,-0.89432 -1.48463,-1.47848 -1.972073,-0.97874 -2.010759,-0.98103 -2.457925,-0.14549 -0.840854,1.57115 1.049521,6.68096 3.220174,8.70435 1.268272,1.18223 3.82098,2.95884 4.251382,2.95884 0.145056,0 0.191752,-1.19326 0.10377,-2.6517 z m 56.795094,1.94615 c 0.46523,-0.19991 0.52531,-0.30979 0.17639,-0.32258 -0.29104,-0.0107 -0.76729,0.13449 -1.05833,0.32258 -0.64487,0.41674 -0.0879,0.41674 0.88194,0 z m -55.710379,-2.02937 c -0.384301,-0.3843 -0.530163,0.11821 -0.286331,0.98644 l 0.243357,0.86654 0.123934,-0.82404 c 0.06816,-0.45323 0.03173,-0.91625 -0.08096,-1.02894 z m 127.607959,0.80486 c 3.71504,-0.58634 5.88992,-1.31386 5.88992,-1.97023 0,-0.25482 -0.2323,-0.30884 -0.61737,-0.1436 -1.00614,0.43177 -7.62027,0.79248 -8.29027,0.45212 -1.16495,-0.59178 -0.69107,-1.59804 1.41111,-2.99639 1.23719,-0.82298 2.26261,-1.83099 2.62871,-2.58406 1.45009,-2.98292 1.44953,-27.705 -7.1e-4,-30.69167 -0.35755,-0.73636 -1.38268,-1.75805 -2.53981,-2.53131 -1.42358,-0.9513 -1.94028,-1.51498 -1.94028,-2.11667 0,-0.80855 0.0545,-0.82007 3.88055,-0.82007 2.13431,0 4.23775,0.12976 4.67431,0.28835 1.3704,0.49785 0.89751,-0.4112 -0.52917,-1.01722 -1.78197,-0.75694 -10.74654,-1.90213 -14.95408,-1.91034 -6.35418,-0.0124 -19.79499,2.97291 -21.48572,4.77212 l -0.86644,0.92205 -0.0882,17.34613 c -0.0678,13.33346 0.0137,17.54228 0.35277,18.19407 1.00421,1.93076 2.20498,2.36115 12.96464,4.64696 4.39055,0.93274 5.20333,0.9998 10.40694,0.8587 3.10445,-0.0842 7.20086,-0.3987 9.10314,-0.69894 z m -19.86286,-1.56609 c -7.67229,-1.50221 -9.11348,-2.25774 -9.84449,-5.16084 -0.52721,-2.09377 -0.52721,-29.62836 0,-31.72213 0.60928,-2.41966 1.82256,-3.30241 5.84094,-4.24971 7.09967,-1.67369 11.5893,-1.92522 15.3873,-0.86207 2.82493,0.79078 5.14989,4.44439 6.99346,10.99004 2.13753,7.58937 1.50269,17.26254 -1.61894,24.6681 -2.2892,5.43072 -3.96587,6.60594 -9.76356,6.84351 -2.63442,0.10795 -4.57138,-0.0324 -6.99471,-0.5069 z m 11.89758,-1.04054 c 2.89757,-1.47823 5.30275,-6.59783 6.60964,-14.06909 0.77027,-4.40345 0.67823,-8.39591 -0.30299,-13.14422 -1.49122,-7.21626 -3.50375,-11.26314 -6.28814,-12.64449 -2.04619,-1.01512 -6.16002,-1.36811 -9.44665,-0.81056 -8.73452,1.48172 -10.28972,2.04244 -11.26761,4.06248 -0.69927,1.44451 -0.72683,2.07487 -0.72683,16.62452 0,14.54964 0.0275,15.18 0.72683,16.62451 0.88041,1.81868 1.84503,2.24386 7.91622,3.48926 5.34021,1.09545 10.47705,1.04223 12.77953,-0.13241 z m -13.42791,-0.89726 c -2.10287,-0.45652 -4.20268,-1.03302 -4.66625,-1.28112 -0.4763,-0.2549 -1.11486,-1.1558 -1.46828,-2.07148 -0.56128,-1.45421 -0.62542,-3.06761 -0.62542,-15.7315 0,-15.02072 0.0853,-15.88557 1.71839,-17.41976 1.29601,-1.21754 8.97034,-2.61556 13.30068,-2.42297 4.03636,0.17952 5.18666,0.72604 6.44236,3.06088 3.73639,6.94738 3.79227,26.199 0.0971,33.45285 -1.29791,2.54787 -2.43494,3.05385 -7.09464,3.15712 -3.00211,0.0665 -4.74606,-0.10189 -7.70394,-0.74402 z m 11.9732,-0.56214 c 1.09128,-0.46815 1.63078,-1.00032 2.19436,-2.16452 3.97176,-8.20457 3.37525,-29.55548 -0.9518,-34.06731 -1.61838,-1.6875 -5.96375,-1.9651 -12.21044,-0.78004 -5.38321,1.02124 -6.03244,1.33666 -6.59796,3.20558 -0.65566,2.16682 -0.66238,28.38106 -0.008,30.53961 0.58279,1.92188 1.31953,2.29159 6.42523,3.22426 6.30982,1.15264 8.54067,1.16113 11.14843,0.0424 z m -59.47897,3.87943 c 0.29104,-0.18809 0.37042,-0.34198 0.17639,-0.34198 -0.19403,0 -0.5909,0.15389 -0.88195,0.34198 -0.29104,0.18808 -0.37041,0.34197 -0.17639,0.34197 0.19403,0 0.59091,-0.15389 0.88195,-0.34197 z m 77.16644,-1.39681 c 1.00545,-1.48393 1.47285,-3.12785 1.70915,-6.01153 0.17759,-2.16706 0.15839,-2.24459 -0.3494,-1.41111 -0.29552,0.48507 -0.5454,1.12007 -0.55527,1.41111 -0.01,0.29104 -0.64617,1.94041 -1.41397,3.66527 -0.7678,1.72486 -1.30642,3.28105 -1.19693,3.4582 0.32426,0.52466 0.96457,0.13052 1.80642,-1.11194 z m -3.673,-1.19688 c 1.18251,-0.48252 1.83927,-1.99589 3.16107,-7.28409 0.66543,-2.66223 0.75124,-4.02756 0.76486,-12.17084 0.018,-10.7793 -0.21599,-12.42548 -2.69342,-18.94647 -0.43782,-1.1524 -1.58549,-1.55797 -5.22874,-1.84774 -3.86549,-0.30746 -4.58694,0.48039 -1.76039,1.92239 1.59754,0.815 3.01104,2.55529 3.29367,4.05516 0.71768,3.80861 0.87552,18.53578 0.27674,25.82254 -0.3761,4.57678 -0.84804,5.51845 -3.6208,7.22455 -1.71959,1.05808 -1.94625,1.34779 -1.45242,1.85647 0.36875,0.37983 5.97611,-0.10832 7.25943,-0.63197 z m -140.855845,-1.8485 c -0.450696,-1.2046 -0.738927,-2.74687 -0.713291,-3.81671 0.02366,-0.9874 -0.0087,-3.30341 -0.07189,-5.14667 -0.138224,-4.03121 -0.139928,-13.23924 -0.0034,-18.34445 0.05448,-2.03729 0.09036,-4.33486 0.07973,-5.1057 -0.02564,-1.85873 0.845019,-4.39226 2.109117,-6.13729 1.828403,-2.52404 6.372869,-5.46118 9.132538,-5.90247 1.381812,-0.22096 1.443484,-0.19122 1.443484,0.69621 0,0.50987 0.119063,0.92639 0.264584,0.92561 0.14552,-7.7e-4 1.693333,-0.23097 3.439583,-0.51154 8.892957,-1.42882 27.330068,-3.45336 31.926388,-3.50577 2.883383,-0.0329 3.53877,0.0725 4.693235,0.75481 1.250714,0.73916 1.412434,0.75651 2.38125,0.25552 1.218509,-0.63011 1.24248,-0.7638 0.346142,-1.93049 L 88.524499,77.29504 71.482835,77.18318 c -9.372914,-0.0615 -18.073539,-0.13791 -19.33472,-0.16974 -1.97899,-0.05 -2.670312,0.12055 -5.047486,1.24486 -3.968439,1.87692 -7.155628,4.10402 -10.371538,7.24729 -3.706803,3.62307 -4.588354,5.01668 -5.198631,8.21829 -1.506325,7.90242 -1.34345,23.28158 0.312835,29.53887 0.426962,1.61302 2.610119,5.16397 2.96497,4.82258 0.06746,-0.0649 -0.217691,-1.02763 -0.63366,-2.13941 z m 72.345895,1.22256 c 0.68253,-0.68253 0.72843,-0.99009 0.50906,-3.41096 -0.88821,-9.80171 -0.88642,-21.06158 0.005,-31.50566 0.21321,-2.49797 0.17311,-2.73407 -0.58417,-3.43959 -1.14116,-1.06315 -1.56444,-0.94321 -0.75037,0.21263 1.12013,1.59035 1.18117,2.30338 0.54045,6.31265 -0.87866,5.49818 -0.88502,19.54826 -0.0114,25.19647 0.66198,4.27983 0.54653,5.37335 -0.71436,6.76662 -0.81356,0.89899 0.0939,0.77975 1.00579,-0.13216 z m -66.933738,-0.16063 c 0.466935,-1.21681 0.09384,-4.38087 -0.516582,-4.38087 -0.455352,0 -0.786185,2.32411 -0.527283,3.70417 0.245868,1.31059 0.690109,1.59858 1.043865,0.6767 z m 97.379978,-1.51913 c 0.20604,-0.33337 -0.6717,-0.48703 -6.43443,-1.12641 -4.24853,-0.47138 -20.14354,-0.24442 -21.76337,0.31075 -0.58208,0.1995 -0.89958,0.38677 -0.70555,0.41617 0.19403,0.0294 5.19465,0.0516 11.1125,0.0493 5.91784,-0.002 11.95034,0.12279 13.40555,0.27792 3.86321,0.41183 4.17229,0.41692 4.3853,0.0723 z m -0.14316,-17.47943 c -0.0123,-8.91286 -0.0651,-16.24784 -0.1172,-16.29996 -0.0521,-0.0521 -1.19999,0.0854 -2.55083,0.30556 -2.75011,0.44825 -23.77477,0.60507 -25.25815,0.18839 -1.24712,-0.35031 -1.28042,-0.18757 -1.75859,8.59145 -0.2932,5.38332 -0.29293,9.13976 10e-4,14.46389 0.48054,8.70264 0.51324,8.86103 1.75754,8.51151 1.39344,-0.39141 22.10142,-0.24584 24.74238,0.17394 1.26118,0.20046 2.49852,0.34331 2.74964,0.31744 0.36665,-0.0378 0.45217,-3.23909 0.43416,-16.25222 z m 45.32773,11.25727 c 0.77244,-6.15418 0.77084,-16.54427 -0.004,-22.92152 -0.32984,-2.71639 -0.67102,-5.0126 -0.75817,-5.10269 -0.0872,-0.0901 -0.11121,1.48124 -0.0535,3.49184 0.067,2.33165 -0.0294,3.70281 -0.26606,3.78587 -0.20408,0.0716 -0.80725,-1.10283 -1.34039,-2.6099 l -0.96932,-2.74012 0.2212,1.94028 c 0.71574,6.27813 0.85927,8.40582 0.85671,12.7 -0.002,4.22413 -0.27424,8.40846 -0.87055,13.40555 -0.16816,1.40915 -0.0807,1.27993 0.77828,-1.15017 0.53225,-1.50572 1.13139,-2.68025 1.33143,-2.61007 0.22136,0.0777 0.33657,1.40647 0.29436,3.39499 -0.0382,1.79707 -0.008,3.20566 0.0678,3.13021 0.0755,-0.0755 0.3957,-2.19687 0.71167,-4.71427 z m -0.98334,-11.19151 c 0.0438,-4.70526 0.10224,-8.63439 0.12993,-8.7314 0.49491,-1.73373 0.91078,13.15126 0.446,15.9632 -0.48788,2.95167 -0.65155,0.89659 -0.57593,-7.2318 z m -145.049315,8.269 c -0.134944,-1.9034 -0.245353,-5.6642 -0.245353,-8.35734 0,-2.69315 0.110409,-6.45395 0.245353,-8.35735 0.209577,-2.9561 0.167865,-3.46071 -0.286064,-3.46071 -0.934935,0 -1.23243,0.80262 -1.649911,4.45134 -0.520584,4.54983 -0.520584,10.1836 0,14.73343 0.417481,3.64872 0.714976,4.45134 1.649911,4.45134 0.453929,0 0.495641,-0.50461 0.286064,-3.46071 z m 0.50724,-21.33647 c 1.221248,-0.59944 1.556456,-0.94199 1.452943,-1.48476 -0.33704,-1.7673 -0.177219,-5.05625 0.272001,-5.59752 0.785157,-0.94606 1.399911,-0.66132 1.802833,0.83502 0.433574,1.61017 0.536912,1.67984 1.055194,0.71142 0.442372,-0.82658 0.813733,-6.00309 0.43066,-6.00309 -0.430654,0 -2.983583,1.77701 -4.250795,2.95884 -1.455797,1.3577 -2.379264,3.11135 -3.081135,5.85102 -0.402549,1.57131 -0.442299,2.28778 -0.156546,2.82172 0.468428,0.87526 0.505742,0.87387 2.474845,-0.0926 z M 180.20387,91.07363 c -0.65416,-3.32506 -2.34272,-6.10635 -3.19177,-5.25731 -0.2211,0.22111 0.085,1.33323 0.86497,3.14241 0.66396,1.54011 1.49834,3.59395 1.85419,4.56409 0.60904,1.66041 0.65411,1.70248 0.7683,0.71713 0.0667,-0.57571 -0.0663,-2.00056 -0.29569,-3.16632 z M 39.578544,92.55268 c 0.458656,-1.71147 0.162185,-4.14514 -0.504963,-4.14514 -0.45819,0 -0.790477,2.31935 -0.530684,3.70416 0.264445,1.40962 0.723661,1.60515 1.035647,0.44098 z m 93.002896,-1.14653 c 2.42535,-0.28767 4.48116,-0.52442 4.56847,-0.5261 0.0873,-0.002 0.008,-0.15341 -0.17638,-0.33717 -0.21083,-0.21017 -1.5783,-0.21049 -3.68653,-8.8e-4 -1.84327,0.18327 -8.24235,0.31655 -14.22018,0.29618 -10.15267,-0.0346 -12.4755,0.0865 -10.4277,0.54376 3.0405,0.67888 18.29273,0.6943 23.94232,0.0242 z m 0.64275,-1.5943 c 3.62405,-0.32078 4.11437,-0.44979 5.29167,-1.39228 1.06312,-0.85108 2.41284,-1.29801 7.47114,-2.47394 8.86067,-2.05988 11.46332,-2.31558 18.60965,-1.82832 3.26771,0.2228 7.12007,0.70445 8.56081,1.07033 2.43119,0.61741 2.67649,0.62391 3.41205,0.0905 0.4359,-0.31611 0.79753,-0.69227 0.80362,-0.8359 0.023,-0.542 -3.31525,-2.64403 -5.62789,-3.54378 -2.00016,-0.77817 -3.34592,-0.99677 -7.99616,-1.29887 -3.07519,-0.19978 -8.05187,-0.52347 -11.0593,-0.71932 -3.00744,-0.19585 -8.64306,-0.58708 -12.52362,-0.86941 -6.57505,-0.47835 -7.08628,-0.47262 -7.50672,0.0842 -1.00733,1.33402 -0.44249,1.63501 3.86892,2.06162 4.1396,0.40961 7.3432,1.01616 8.4885,1.60716 1.17407,0.60584 0.73331,1.69324 -0.99647,2.45841 -4.426,1.95783 -15.66218,3.9082 -22.55145,3.91447 -5.46437,0.005 -7.65055,-0.46769 -17.81419,-3.85155 -9.373785,-3.12089 -10.08308,-3.34119 -9.691066,-3.00988 0.187755,0.15869 1.293876,0.66043 2.458042,1.11499 4.167454,1.62723 8.459464,4.04834 10.133454,5.71627 0.91673,0.91341 2.02798,1.73007 2.46944,1.81479 1.64505,0.31573 20.35201,0.23113 24.19957,-0.10944 z m -4.5233,-2.86778 c 1.84326,-0.20262 3.47088,-0.44212 3.61692,-0.53221 0.14605,-0.0901 0.10636,-0.46124 -0.0882,-0.82476 -0.46185,-0.86297 -0.4547,-3.74007 0.0115,-4.61109 0.34118,-0.6375 0.23101,-0.68324 -1.67569,-0.69569 -1.12249,-0.007 -2.59652,-0.0834 -3.27561,-0.16909 -2.54158,-0.32064 -19.34006,-0.87591 -26.49861,-0.87591 -7.915379,0 -8.696979,0.2049 -5.463475,1.43232 9.669655,3.67053 17.951515,6.05308 23.671805,6.80997 1.30337,0.17246 5.25691,-0.045 9.70139,-0.53354 z m 1.78259,-3.34031 c -0.37502,-2.15351 -0.28186,-3.47932 0.14938,-2.12588 0.10158,0.31881 0.28396,0.85747 0.40528,1.19702 0.58503,1.63736 0.73322,3.26319 0.29743,3.26319 -0.27308,0 -0.60297,-0.90373 -0.85209,-2.33433 z m -87.532381,1.71697 c -0.02197,-0.85966 -0.05932,-0.88979 -0.327982,-0.26458 -0.414061,0.96357 -0.414061,1.23472 0,1.23472 0.194027,0 0.34162,-0.43656 0.327982,-0.97014 z m 95.012171,-0.64021 c 1.96318,-0.49764 3.89694,-1.08074 4.29726,-1.29577 0.6912,-0.37128 0.66842,-0.41529 -0.45232,-0.87383 -0.64909,-0.26558 -2.9864,-0.57966 -5.19403,-0.69797 -4.57107,-0.24497 -4.71261,-0.1636 -4.04269,2.32428 0.47266,1.75535 0.57109,1.76527 5.39178,0.54329 z M 99.42034,84.52698 c -0.29104,-0.18808 -0.68792,-0.34197 -0.88195,-0.34197 -0.19402,0 -0.11465,0.15389 0.17639,0.34197 0.29104,0.18809 0.68792,0.34198 0.88195,0.34198 0.19403,0 0.11465,-0.15389 -0.17639,-0.34198 z M 45.445339,82.3524 c 0,-0.22888 -0.371909,-0.27801 -0.969416,-0.12804 -1.244029,0.31223 -1.224931,0.28279 -0.93439,1.44039 l 0.247198,0.98492 0.828304,-0.96296 c 0.455567,-0.52963 0.828304,-1.13007 0.828304,-1.33431 z m 50.799998,0.76347 c -0.291041,-0.18808 -0.767291,-0.33325 -1.058333,-0.32258 -0.348918,0.0128 -0.288833,0.12267 0.176389,0.32258 0.969818,0.41675 1.526812,0.41675 0.881944,0 z m 48.330553,-0.005 c 0.47037,-0.30878 0.47037,-0.38597 0,-0.69475 -0.78956,-0.51831 -1.02027,-0.43494 -0.96134,0.34737 0.0598,0.79337 0.20307,0.84515 0.96134,0.34738 z m -51.505552,-2.4321 c -0.923086,-0.52223 -2.330606,-0.85493 -1.940278,-0.45861 0.194028,0.197 0.670278,0.43455 1.058333,0.52789 1.141854,0.27465 1.447433,0.25065 0.881945,-0.0693 z m 38.517642,-1.97371 c 0.22138,-0.48589 0.30266,-0.9833 0.1806,-1.10535 -0.12205,-0.12205 -7.03906,-0.3872 -15.37114,-0.58922 -14.0278,-0.34011 -15.21686,-0.32297 -16.06315,0.23154 -0.50267,0.32936 -0.91395,0.73608 -0.91395,0.90383 0,0.16774 3.92906,0.41038 8.73124,0.53921 4.80219,0.12882 11.35063,0.36109 14.55209,0.51615 3.20145,0.15505 6.41954,0.30562 7.15131,0.33459 1.10355,0.0437 1.39913,-0.098 1.733,-0.83075 z m 36.27124,0.36333 c 0,-0.37989 -2.13206,-1.212 -5.11528,-1.99643 -3.01498,-0.79278 -3.72096,-0.83415 -14.00753,-0.82084 -9.96349,0.0129 -11.72043,0.12839 -11.11799,0.73083 0.21614,0.21614 1.48775,0.31454 17.5408,1.35733 8.29944,0.53913 10.74222,0.70837 12.08264,0.83713 0.33955,0.0326 0.61736,-0.016 0.61736,-0.10802 z M 95.441533,78.39322 c 0.109337,-0.10933 -0.0021,-0.44075 -0.247452,-0.73648 -0.326016,-0.39282 -1.147459,-0.53769 -3.048882,-0.53769 -2.723653,0 -3.132571,0.28075 -1.808889,1.24191 0.598956,0.43493 1.298391,0.534 2.850091,0.40371 1.130988,-0.095 2.145799,-0.26211 2.255132,-0.37145 z m 3.883497,-1.36237 c 1.24498,-1.34772 2.08387,-5.90902 1.08676,-5.90902 -0.59163,0 -3.683175,3.41938 -4.183389,4.627 -0.592343,1.43004 -0.225549,2.07577 1.179089,2.07577 0.77573,0 1.43727,-0.27384 1.91754,-0.79375 z M 81.957838,76.43518 c 4.047906,-0.0544 4.779786,-0.14005 4.056944,-0.47459 -1.124627,-0.52049 -23.788133,-0.58371 -27.340277,-0.0763 l -2.469444,0.35277 4.233333,0.17639 c 4.000013,0.16667 10.26778,0.17299 21.519444,0.0217 z"
           id="path3710-3"
           inkscape:connector-curvature="0" />
      </g>
    </g>
    <text
       xml:space="preserve"
       style="font-style:normal;font-weight:normal;font-size:10.58333302px;line-height:1.25;font-family:sans-serif;letter-spacing:0px;word-spacing:0px;fill:#000000;fill-opacity:1;stroke:none;stroke-width:0.26458332"
       x="16.073774"
       y="143.31465"
       id="text920"><tspan
         sodipodi:role="line"
         id="tspan918"
         x="16.073774"
         y="143.31465"
         style="font-size:7.76111126px;stroke-width:0.26458332">p<tspan
   style="font-size:64.99999762%;baseline-shift:sub"
   id="tspan922">0</tspan></tspan></text>
    <text
       xml:space="preserve"
       style="font-style:normal;font-weight:normal;font-size:10.58333302px;line-height:1.25;font-family:sans-serif;letter-spacing:0px;word-spacing:0px;fill:#000000;fill-opacity:1;stroke:none;stroke-width:0.26458332"
       x="51.32143"
       y="125.59482"
       id="text920-3"><tspan
         sodipodi:role="line"
         id="tspan918-6"
         x="51.32143"
         y="125.59482"
         style="font-size:7.76111126px;stroke-width:0.26458332">p<tspan
   style="font-size:64.99999762%;baseline-shift:sub"
   id="tspan945">1</tspan></tspan></text>
    <text
       xml:space="preserve"
       style="font-style:normal;font-weight:normal;font-size:10.58333302px;line-height:1.25;font-family:sans-serif;letter-spacing:0px;word-spacing:0px;fill:#000000;fill-opacity:1;stroke:none;stroke-width:0.26458332"
       x="72.251381"
       y="123.2885"
       id="text920-3-5"><tspan
         sodipodi:role="line"
         id="tspan918-6-3"
         x="72.251381"
         y="123.2885"
         style="font-size:7.76111126px;stroke-width:0.26458332">p<tspan
   style="font-size:64.99999762%;baseline-shift:sub"
   id="tspan968">2</tspan></tspan></text>
    <text
       xml:space="preserve"
       style="font-style:normal;font-weight:normal;font-size:10.58333302px;line-height:1.25;font-family:sans-serif;letter-spacing:0px;word-spacing:0px;fill:#000000;fill-opacity:1;stroke:none;stroke-width:0.26458332"
       x="92.316307"
       y="107.80298"
       id="text920-3-5-6"><tspan
         sodipodi:role="line"
         id="tspan918-6-3-2"
         x="92.316307"
         y="107.80298"
         style="font-size:7.76111126px;stroke-width:0.26458332">p<tspan
   style="font-size:64.99999762%;baseline-shift:sub"
   id="tspan991">3</tspan></tspan></text>
    <text
       xml:space="preserve"
       style="font-style:normal;font-weight:normal;font-size:10.58333302px;line-height:1.25;font-family:sans-serif;letter-spacing:0px;word-spacing:0px;fill:#000000;fill-opacity:1;stroke:none;stroke-width:0.26458332"
       x="113.38009"
       y="123.56724"
       id="text920-3-5-6-1"><tspan
         sodipodi:role="line"
         id="tspan918-6-3-2-2"
         x="113.38009"
         y="123.56724"
         style="font-size:7.76111126px;stroke-width:0.26458332">p<tspan
   style="font-size:64.99999762%;baseline-shift:sub"
   id="tspan1045">4</tspan></tspan></text>
    <text
       xml:space="preserve"
       style="font-style:normal;font-weight:normal;font-size:10.58333302px;line-height:1.25;font-family:sans-serif;letter-spacing:0px;word-spacing:0px;fill:#000000;fill-opacity:1;stroke:none;stroke-width:0.26458332"
       x="165.76492"
       y="125.17085"
       id="text920-3-5-6-0"><tspan
         sodipodi:role="line"
         id="tspan918-6-3-2-9"
         x="165.76492"
         y="125.17085"
         style="font-size:7.76111126px;stroke-width:0.26458332">p<tspan
   style="font-size:64.99999762%;baseline-shift:sub"
   id="tspan1047">5</tspan></tspan></text>
    <text
       xml:space="preserve"
       style="font-style:normal;font-weight:normal;font-size:10.58333302px;line-height:1.25;font-family:sans-serif;letter-spacing:0px;word-spacing:0px;fill:#000000;fill-opacity:1;stroke:none;stroke-width:0.26458332"
       x="199.70816"
       y="144.14699"
       id="text920-3-5-6-6"><tspan
         sodipodi:role="line"
         id="tspan918-6-3-2-0"
         x="199.70816"
         y="144.14699"
         style="font-size:7.76111126px;stroke-width:0.26458332">p<tspan
   style="font-size:64.99999762%;baseline-shift:sub"
   id="tspan1049">6</tspan></tspan></text>
    <text
       xml:space="preserve"
       style="font-style:normal;font-weight:normal;font-size:10.58333302px;line-height:1.25;font-family:sans-serif;letter-spacing:0px;word-spacing:0px;fill:#000000;fill-opacity:1;stroke:none;stroke-width:0.26458332"
       x="80.374672"
       y="130.54745"
       id="text1057"><tspan
         sodipodi:role="line"
         id="tspan1055"
         x="80.374672"
         y="130.54745"
         style="font-size:5.64444447px;stroke-width:0.26458332">speed limit</tspan></text>
    <path
       style="fill:none;stroke:#0007ff;stroke-width:0.48470429;stroke-linecap:butt;stroke-linejoin:miter;stroke-miterlimit:4;stroke-dasharray:0.96940865, 0.96940865;stroke-dashoffset:0;stroke-opacity:1"
       d="m 20.011795,149.524 c 23.577052,0.56886 24.381014,-10.76214 40.962416,-21.09761 8.076632,-3.55512 12.81581,-0.0211 20.481381,-2.58674 7.006209,-3.06603 8.192962,-8.64121 14.593389,-8.37899 5.376359,0.26221 9.984199,6.30992 14.080469,8.40759 7.93654,3.93309 45.8165,-1.18622 56.56923,2.48468 18.8425,7.61794 18.66231,21.9078 43.02178,21.69546"
       id="path3807"
       inkscape:connector-curvature="0"
       sodipodi:nodetypes="ccccccc" />
  </g>
</svg>
